<svg xmlns="http://www.w3.org/2000/svg" viewBox="0 0 64 64">
  <!-- Single unified lightbulb body -->
  <path d="M32 5 C18 5 10 15 10 25 C10 34 16 40 22 43 L22 51 Q22 55 26 55 L38 55 Q42 55 42 51 L42 43 C48 40 54 34 54 25 C54 15 46 5 32 5 Z" fill="#FFCA28"/>
  <!-- Inner shadow on lower body -->
  <path d="M24 43 L24 51 Q24 53 26 53 L38 53 Q40 53 40 51 L40 43 Z" fill="#FFB300"/>
  <!-- Code text -->
  <text x="32" y="33" font-family="Arial,sans-serif" font-size="14" font-weight="900" fill="#3730A3" text-anchor="middle">&lt;/&gt;</text>
  <!-- Base collar -->
  <rect x="26" y="55" width="12" height="4" rx="2" fill="#B0BEC5"/>
  <rect x="27" y="59" width="10" height="3" rx="1.5" fill="#90A4AE"/>
</svg>
